<svg xmlns="http://www.w3.org/2000/svg" width="32" height="32" viewBox="0 0 115 102" fill="none">
  <rect width="115" height="102" rx="16" fill="#0a0a14"/>
  <path d="M97.9438 48.9363L77.4357 51.4243L95.4364 44.6036L92.8913 40.2033L75.6547 46.7361L90.6769 36.3737L88.157 32.0159L72.8016 42.6062L85.8023 27.9436L83.1546 23.3656L69.0441 39.2822L80.1411 18.1543L77.1702 13.0156L64.5978 36.9519L72.496 4.93092L70.497 1.47427C69.7656 1.30907 69.0291 1.16139 68.2876 1.02373L59.7207 35.7504V0.0575691C58.8966 0.0250301 58.0699 0 57.2383 0C56.4066 0 55.5424 0.022527 54.7007 0.0600721V35.7504L46.1438 1.03374C45.3623 1.18142 44.5832 1.33661 43.8117 1.51432L41.9054 4.81078L49.8336 36.9519L37.2136 12.9255L34.2428 18.0642L45.3873 39.2822L31.2143 23.298L28.5665 27.876L41.6274 42.6087L26.1993 31.9684L23.6794 36.3261L38.7742 46.7361L21.455 40.1732L18.9099 44.5735L36.9932 51.4268L16.3924 48.9263L13.662 53.6469L36.387 56.4052L10.2327 59.579L7.09153 65.0131L36.9932 61.3862L1.39526 74.8774L0 77.2878C0.31813 78.3291 0.668823 79.3578 1.04206 80.374L38.7792 66.0744L5.16021 89.2622C5.98935 90.7214 6.87611 92.1432 7.82048 93.5223L41.6299 70.2018L14.1104 101.242C14.3534 101.492 14.5914 101.747 14.8394 101.995H20.1499L45.3873 73.5308L30.4352 101.995H36.104L49.8311 75.8611L43.3859 101.995H48.5561L54.7058 77.0625V101.995H59.7257V77.0625L65.8754 101.995H71.0456L64.5978 75.8611L78.325 101.995H83.9937L69.0416 73.5308L94.2791 101.995H99.6422C99.8802 101.757 100.111 101.512 100.344 101.272L72.7991 70.2043L106.644 93.5473C107.588 92.1682 108.477 90.749 109.306 89.2897L75.6497 66.0744L113.432 80.3915C113.788 79.4254 114.123 78.4492 114.429 77.4605L112.908 74.8274L77.4307 61.3837L107.225 64.9981L104.083 59.564L78.0369 56.4027L100.669 53.6569L97.9388 48.9363H97.9438Z" fill="#AA65FF"/>
</svg>
