<?xml version="1.0" encoding="UTF-8"?> <svg xmlns="http://www.w3.org/2000/svg" width="715" height="102" viewBox="0 0 715 102" fill="none"><path d="M180.956 101.995C173.16 101.995 166.374 100.573 160.595 97.7349C154.909 94.894 150.415 90.9542 147.114 85.9132C143.812 80.8721 141.886 75.0076 141.335 68.3195L156.605 67.3584C157.246 71.9414 158.576 75.8361 160.593 79.0424C162.612 82.1587 165.315 84.5415 168.709 86.191C172.193 87.7479 176.367 88.5288 181.229 88.5288C185.447 88.5288 189.024 88.0257 191.96 87.017C194.986 85.9182 197.278 84.3138 198.839 82.2062C200.397 80.0987 201.178 77.5331 201.178 74.5095C201.178 71.7612 200.489 69.3308 199.114 67.2232C197.829 65.0231 195.309 63.0532 191.547 61.3136C187.879 59.4814 182.466 57.6943 175.314 55.9522C167.519 54.0274 161.284 51.9198 156.605 49.6296C151.928 47.3394 148.534 44.4984 146.425 41.1069C144.406 37.6252 143.399 33.3626 143.399 28.324C143.399 22.7348 144.729 17.8314 147.389 13.6164C150.14 9.30868 154.037 5.96466 159.082 3.5818C164.125 1.19894 170.179 0.00750871 177.241 0.00750871C184.668 0.00750871 190.998 1.38166 196.223 4.13246C201.544 6.88076 205.717 10.6378 208.743 15.4035C211.862 20.1692 213.788 25.6208 214.522 31.7606L199.252 32.5841C198.793 28.8271 197.646 25.5282 195.813 22.6872C193.979 19.7537 191.501 17.5085 188.385 15.9517C185.267 14.3022 181.462 13.4762 176.968 13.4762C171.281 13.4762 166.788 14.8053 163.486 17.4635C160.277 20.0291 158.672 23.4657 158.672 27.7734C158.672 30.5217 159.313 32.8595 160.598 34.7843C161.976 36.6165 164.358 38.2209 167.752 39.5951C171.236 40.9692 176.144 42.436 182.471 43.9928C190.91 45.9176 197.604 48.3005 202.556 51.1414C207.598 53.8897 211.178 57.1436 213.285 60.9006C215.394 64.6576 216.448 68.9203 216.448 73.6835C216.448 79.4579 214.935 84.4965 211.909 88.8041C208.976 93.0192 204.848 96.2731 199.527 98.5634C194.209 100.854 188.017 102 180.956 102V101.995ZM259.075 99.7948C252.106 99.7948 246.971 98.1904 243.667 94.9841C240.366 91.7777 238.715 86.7817 238.715 80.0011V9.48389H253.296V78.8998C253.296 82.2913 254.03 84.6266 255.498 85.9107C256.966 87.1947 259.213 87.8355 262.239 87.8355H272.695V99.7948H259.075ZM227.573 38.6264V26.667H272.695V38.6264H227.573ZM315.547 101.444C308.393 101.444 302.203 99.8875 296.975 96.7712C291.84 93.655 287.85 89.2121 285.007 83.4377C282.254 77.6633 280.878 70.9302 280.878 63.2309C280.878 55.5317 282.254 48.8437 285.007 43.1618C287.85 37.3874 291.84 32.9446 296.975 29.8283C302.11 26.622 308.165 25.0175 315.134 25.0175C321.737 25.0175 327.561 26.5744 332.603 29.6907C337.648 32.7143 341.546 37.1146 344.296 42.8865C347.139 48.6609 348.562 55.6243 348.562 63.7791V67.4911H296.013C296.382 74.6396 298.26 79.9986 301.654 83.5729C305.139 87.1472 309.816 88.9343 315.685 88.9343C319.996 88.9343 323.573 87.9256 326.416 85.9107C329.259 83.8957 331.23 81.19 332.33 77.8009L347.463 78.7621C345.536 85.5427 341.731 91.0418 336.045 95.2569C330.451 99.3819 323.618 101.442 315.547 101.442V101.444ZM333.157 56.4953C332.698 49.99 330.817 45.1768 327.516 42.063C324.307 38.9468 320.179 37.3899 315.134 37.3899C310.089 37.3899 305.597 39.0394 302.203 42.3383C298.902 45.5447 296.837 50.2654 296.011 56.4953H333.157ZM379.967 99.7948C375.198 99.7948 371.345 98.5584 368.412 96.0829C365.478 93.6074 364.01 89.6677 364.01 84.2612V2.20014H378.592V82.8895C378.592 84.539 379.005 85.7755 379.829 86.6015C380.746 87.425 382.031 87.838 383.682 87.838H389.461V99.7973H379.969L379.967 99.7948ZM417.449 99.7948C412.679 99.7948 408.827 98.5584 405.893 96.0829C402.96 93.6074 401.492 89.6677 401.492 84.2612V2.20014H416.073V82.8895C416.073 84.539 416.487 85.7755 417.311 86.6015C418.228 87.425 419.513 87.838 421.163 87.838H426.942V99.7973H417.451L417.449 99.7948ZM460.679 101.444C453.067 101.444 446.97 99.7047 442.383 96.2206C437.889 92.7389 435.642 87.8355 435.642 81.5129C435.642 75.1903 437.523 70.2869 441.283 66.8052C445.136 63.2309 451.05 60.6654 459.031 59.1085L484.206 54.2977C484.206 48.6159 482.876 44.4008 480.215 41.6525C477.555 38.8116 473.612 37.3924 468.384 37.3924C463.708 37.3924 460.038 38.4462 457.378 40.5537C454.717 42.5686 452.884 45.5948 451.874 49.6271L436.88 48.6659C438.255 41.3346 441.649 35.5627 447.06 31.3451C452.563 27.1301 459.67 25.0226 468.382 25.0226C478.286 25.0226 485.806 27.6807 490.942 32.9946C496.169 38.2184 498.782 45.5948 498.782 55.1262V83.5804C498.782 85.3225 499.058 86.5589 499.609 87.2923C500.25 87.9331 501.26 88.2535 502.635 88.2535H505.247V99.7999C504.789 99.8925 504.055 99.9826 503.046 100.075C502.036 100.168 500.981 100.213 499.882 100.213C496.766 100.213 494.058 99.7097 491.766 98.701C489.564 97.6923 487.913 96.0428 486.813 93.7526C485.714 91.3697 485.163 88.2084 485.163 84.2687L486.676 84.957C485.942 88.1634 484.336 91.0043 481.861 93.4798C479.476 95.9527 476.405 97.9251 472.643 99.3894C468.976 100.764 464.985 101.452 460.674 101.452L460.679 101.444ZM463.016 89.898C467.418 89.898 471.177 89.0745 474.296 87.425C477.415 85.6829 479.845 83.3 481.586 80.2764C483.329 77.2528 484.201 73.8161 484.201 69.9665V65.2934L462.741 69.4184C458.34 70.2444 455.221 71.5709 453.387 73.4056C451.644 75.1477 450.772 77.3929 450.772 80.1412C450.772 83.2575 451.827 85.6854 453.936 87.4275C456.138 89.077 459.164 89.9005 463.016 89.9005V89.898ZM517.562 99.7948V26.667H530.906L531.454 46.1855L529.666 45.2243C530.492 40.4586 532.05 36.6115 534.342 33.6779C536.635 30.7444 539.432 28.5918 542.734 27.2177C546.036 25.7509 549.613 25.0175 553.465 25.0175C558.966 25.0175 563.508 26.254 567.082 28.7295C570.752 31.1124 573.502 34.4113 575.336 38.6264C577.262 42.7513 578.224 47.4695 578.224 52.7859V99.7973H563.643V57.1862C563.643 52.8785 563.185 49.2592 562.268 46.3281C561.351 43.3946 559.838 41.1494 557.729 39.5925C555.62 38.0357 552.869 37.2547 549.475 37.2547C544.34 37.2547 540.167 38.9493 536.955 42.3409C533.746 45.7324 532.141 50.6809 532.141 57.1862V99.7973H517.559L517.562 99.7948ZM627.354 101.444C620.385 101.444 614.286 99.8875 609.058 96.7712C603.83 93.655 599.795 89.2121 596.951 83.4377C594.108 77.6633 592.688 70.9302 592.688 63.2309C592.688 55.5317 594.108 48.706 596.951 43.0242C599.795 37.3423 603.83 32.9446 609.058 29.8283C614.286 26.622 620.385 25.0175 627.354 25.0175C634.323 25.0175 640.422 26.622 645.65 29.8283C650.878 32.9446 654.914 37.3423 657.757 43.0242C660.6 48.706 662.023 55.4416 662.023 63.2309C662.023 71.0203 660.602 77.6633 657.757 83.4377C654.914 89.2121 650.878 93.655 645.65 96.7712C640.422 99.8875 634.323 101.444 627.354 101.444ZM627.354 88.7991C633.589 88.7991 638.406 86.5539 641.798 82.0636C645.192 77.4806 646.888 71.2055 646.888 63.2309C646.888 55.2564 645.189 49.0264 641.798 44.536C638.406 39.953 633.589 37.6627 627.354 37.6627C621.119 37.6627 616.395 39.953 612.91 44.536C609.516 49.0264 607.82 55.2589 607.82 63.2309C607.82 71.203 609.516 77.4806 612.91 82.0636C616.395 86.5539 621.209 88.7991 627.354 88.7991ZM676.757 99.7948V26.667H690.101L690.649 46.0478L689.412 45.6348C690.421 39.0369 692.438 34.2261 695.464 31.2025C698.582 28.1788 702.756 26.667 707.984 26.667H715V39.7252H707.984C704.316 39.7252 701.243 40.3209 698.768 41.5124C696.293 42.7038 694.412 44.536 693.127 47.0115C691.934 49.4844 691.338 52.6933 691.338 56.633V99.7948H676.757Z" fill="#AA65FF"></path><path d="M97.9438 48.9363L77.4357 51.4243L95.4364 44.6036L92.8913 40.2033L75.6547 46.7361L90.6769 36.3737L88.157 32.0159L72.8016 42.6062L85.8023 27.9436L83.1546 23.3656L69.0441 39.2822L80.1411 18.1543L77.1702 13.0156L64.5978 36.9519L72.496 4.93092L70.497 1.47427C69.7656 1.30907 69.0291 1.16139 68.2876 1.02373L59.7207 35.7504V0.0575691C58.8966 0.0250301 58.0699 0 57.2383 0C56.4066 0 55.5424 0.022527 54.7007 0.0600721V35.7504L46.1438 1.03374C45.3623 1.18142 44.5832 1.33661 43.8117 1.51432L41.9054 4.81078L49.8336 36.9519L37.2136 12.9255L34.2428 18.0642L45.3873 39.2822L31.2143 23.298L28.5665 27.876L41.6274 42.6087L26.1993 31.9684L23.6794 36.3261L38.7742 46.7361L21.455 40.1732L18.9099 44.5735L36.9932 51.4268L16.3924 48.9263L13.662 53.6469L36.387 56.4052L10.2327 59.579L7.09153 65.0131L36.9932 61.3862L1.39526 74.8774L0 77.2878C0.31813 78.3291 0.668823 79.3578 1.04206 80.374L38.7792 66.0744L5.16021 89.2622C5.98935 90.7214 6.87611 92.1432 7.82048 93.5223L41.6299 70.2018L14.1104 101.242C14.3534 101.492 14.5914 101.747 14.8394 101.995H20.1499L45.3873 73.5308L30.4352 101.995H36.104L49.8311 75.8611L43.3859 101.995H48.5561L54.7058 77.0625V101.995H59.7257V77.0625L65.8754 101.995H71.0456L64.5978 75.8611L78.325 101.995H83.9937L69.0416 73.5308L94.2791 101.995H99.6422C99.8802 101.757 100.111 101.512 100.344 101.272L72.7991 70.2043L106.644 93.5473C107.588 92.1682 108.477 90.749 109.306 89.2897L75.6497 66.0744L113.432 80.3915C113.788 79.4254 114.123 78.4492 114.429 77.4605L112.908 74.8274L77.4307 61.3837L107.225 64.9981L104.083 59.564L78.0369 56.4027L100.669 53.6569L97.9388 48.9363H97.9438Z" fill="#AA65FF"></path></svg>
